<svg aria-hidden="true" style="position: absolute; width: 0; height: 0; overflow: hidden;" version="1.1" xmlns="http://www.w3.org/2000/svg" xmlns:xlink="http://www.w3.org/1999/xlink">
<defs>
<symbol id="cidrowy-emblematv4" viewBox="0 0 27 32">
<path fill="#010202" style="fill: var(--color1, #010202)" d="M10.336 0.639l15.708-0.132-0.065 1.023v22.49l-12.643 7.34-4.17-1.544-1.336-19.267 2.505-9.909z"></path>
<path fill="#d8601d" style="fill: var(--color2, #d8601d)" d="M12.822 31.166l-7.956-4.417-4.644-2.843v-23.434l12.6-0.009v30.703z"></path>
<path fill="#efeae9" style="fill: var(--color3, #efeae9)" d="M16.922 12.452l0.455-1.066c0.001-0.004 0.002-0.008 0.002-0.012 0-0.021-0.017-0.038-0.038-0.038-0.005 0-0.010 0.001-0.015 0.003l0-0-0.886 0.419c-0.501 0.24-0.929 0.55-1.291 0.925l-0.001 0.001-4.255 4.399-0.925-0.925c-0.028-0.027-0.066-0.044-0.108-0.044s-0.080 0.017-0.108 0.044l0-0c-0.028 0.028-0.045 0.066-0.045 0.108s0.017 0.080 0.045 0.108v0l0.912 0.912c-0.315 0.196-0.588 0.416-0.831 0.665l-0.001 0.001c-0.399 0.399-0.691 0.816-0.816 1.132-0.010 0.024-0.018 0.048-0.025 0.070-0.038 0.12-0.093 0.224-0.164 0.315l0.002-0.002c-0.047 0.063-0.104 0.115-0.169 0.155l-0.003 0.001c-0.032-0.013-0.069-0.020-0.108-0.020-0.079 0-0.151 0.030-0.205 0.080l0-0c-0.121 0.121-0.1 0.339 0.048 0.487s0.366 0.17 0.487 0.048c0.049-0.054 0.079-0.125 0.079-0.204 0-0.040-0.008-0.078-0.022-0.112l0.001 0.002c0.081-0.115 0.24-0.224 0.397-0.302 0.028-0.014 0.064-0.029 0.1-0.041l0.007-0.002c0.321-0.116 0.752-0.413 1.167-0.827 0.249-0.244 0.469-0.517 0.654-0.814l0.011-0.019 0.912 0.912c0.028 0.027 0.066 0.044 0.108 0.044s0.080-0.017 0.108-0.044l-0 0c0.027-0.028 0.044-0.066 0.044-0.108s-0.017-0.080-0.044-0.108l-0.934-0.934 0.083-0.080 4.396-3.791c0.415-0.36 0.746-0.806 0.967-1.312l0.009-0.024z"></path>
<path fill="#efeae9" style="fill: var(--color3, #efeae9)" d="M9.462 11.715l-1.066-0.455c-0.004-0.001-0.008-0.002-0.012-0.002-0.021 0-0.038 0.017-0.038 0.038 0 0.005 0.001 0.010 0.003 0.015l-0-0 0.419 0.885c0.24 0.501 0.55 0.928 0.923 1.291l0.001 0.001 4.401 4.255-0.925 0.928c-0.028 0.028-0.045 0.066-0.045 0.108s0.017 0.080 0.045 0.108v0c0.028 0.027 0.066 0.044 0.108 0.044s0.080-0.017 0.108-0.044l0.912-0.912c0.196 0.315 0.416 0.588 0.664 0.832l0.001 0.001c0.399 0.399 0.816 0.691 1.132 0.816 0.024 0.010 0.048 0.018 0.070 0.025 0.12 0.038 0.224 0.093 0.315 0.164l-0.002-0.002c0.063 0.047 0.116 0.104 0.155 0.169l0.001 0.003c-0.012 0.032-0.020 0.069-0.020 0.108 0 0.079 0.030 0.151 0.079 0.205l-0-0c0.121 0.121 0.339 0.1 0.487-0.048s0.169-0.366 0.048-0.487c-0.054-0.049-0.125-0.079-0.204-0.079-0.040 0-0.077 0.008-0.112 0.021l0.002-0.001c-0.115-0.081-0.224-0.24-0.302-0.397-0.014-0.028-0.028-0.063-0.041-0.099l-0.002-0.008c-0.116-0.32-0.413-0.752-0.827-1.167-0.244-0.249-0.517-0.469-0.814-0.654l-0.018-0.011 0.912-0.912c0.028-0.028 0.045-0.066 0.045-0.108s-0.017-0.080-0.045-0.108v0c-0.028-0.028-0.066-0.045-0.108-0.045s-0.080 0.017-0.108 0.045v0l-0.935 0.934-0.079-0.087-3.791-4.396c-0.361-0.415-0.807-0.746-1.312-0.967l-0.024-0.009z"></path>
<path fill="#f4c80f" style="fill: var(--color4, #f4c80f)" d="M20.791 21.391c-0.070-0.064-0.44 0.136-0.75 0.269-0.252 0.113-0.47 0.248-0.667 0.407l0.006-0.004c0.121-0.199 0.237-0.432 0.335-0.675l0.012-0.033c0.232-0.188 0.679-0.615 0.797-1.212 0.085-0.425-0.041-0.768-0.316-0.731-0.355 0.048-0.569 0.578-0.646 1.115-0.021 0.136-0.034 0.293-0.034 0.453 0 0.089 0.004 0.178 0.011 0.266l-0.001-0.011c-0.148 0.366-0.315 0.68-0.512 0.973l0.012-0.019c0.093-0.37 0.179-0.904 0.088-1.426-0.058-0.332-0.093-0.751-0.186-0.774-0.048-0.012-0.199 0.174-0.317 0.44s-0.203 0.629-0.195 0.824c0.020 0.54 0.247 1.038 0.373 1.276-0.429 0.571-0.919 1.063-1.469 1.48l-0.018 0.013c0.205-0.325 0.412-0.741 0.504-1.194 0.074-0.367 0.208-0.816 0.122-0.877-0.044-0.031-0.278 0.1-0.507 0.327s-0.465 0.569-0.537 0.775c-0.175 0.501-0.171 1.036-0.144 1.359-0.214 0.136-0.443 0.269-0.69 0.395-0.342 0.182-0.753 0.362-1.178 0.513l-0.067 0.021c0.341-0.336 0.756-0.832 0.986-1.414 0.153-0.389 0.389-0.858 0.301-0.94-0.045-0.042-0.338 0.062-0.645 0.274-0.315 0.216-0.641 0.544-0.762 0.757-0.301 0.532-0.391 1.134-0.416 1.488-0.737 0.201-1.256 0.228-1.461 0.23s-0.725-0.030-1.461-0.23c-0.025-0.354-0.114-0.956-0.416-1.488-0.121-0.213-0.447-0.541-0.762-0.757-0.307-0.211-0.602-0.315-0.645-0.274-0.088 0.082 0.148 0.549 0.301 0.94 0.229 0.582 0.644 1.078 0.985 1.414-0.492-0.172-0.903-0.352-1.297-0.559l0.053 0.025c-0.246-0.126-0.475-0.258-0.69-0.395 0.027-0.323 0.032-0.858-0.144-1.359-0.072-0.206-0.301-0.541-0.537-0.775s-0.464-0.358-0.507-0.327c-0.086 0.061 0.048 0.511 0.122 0.877 0.091 0.452 0.299 0.868 0.504 1.194-0.569-0.431-1.059-0.923-1.474-1.474l-0.014-0.019c0.126-0.24 0.353-0.737 0.373-1.276 0.007-0.195-0.074-0.552-0.195-0.824s-0.271-0.452-0.317-0.44c-0.092 0.023-0.127 0.442-0.186 0.774-0.091 0.521-0.006 1.056 0.088 1.426-0.185-0.274-0.352-0.588-0.487-0.919l-0.013-0.035c0.007-0.075 0.010-0.163 0.010-0.252 0-0.161-0.012-0.319-0.036-0.473l0.002 0.017c-0.076-0.537-0.292-1.067-0.646-1.115-0.275-0.037-0.401 0.306-0.316 0.731 0.119 0.596 0.565 1.024 0.797 1.212 0.11 0.276 0.226 0.509 0.359 0.731l-0.013-0.022c-0.191-0.155-0.409-0.29-0.642-0.395l-0.019-0.008c-0.31-0.133-0.68-0.333-0.75-0.269-0.035 0.033 0.036 0.263 0.195 0.506 0.162 0.25 0.415 0.514 0.582 0.614 0.427 0.258 0.923 0.348 1.207 0.381 0.463 0.567 0.991 1.056 1.578 1.466l0.025 0.017c-0.335-0.113-0.721-0.178-1.123-0.178-0.038 0-0.077 0.001-0.115 0.002l0.006-0c-0.374 0.019-0.842 0-0.88 0.1-0.019 0.048 0.166 0.244 0.443 0.41 0.285 0.17 0.666 0.309 0.883 0.328 0.596 0.051 1.177-0.13 1.457-0.237 0.12 0.068 0.24 0.136 0.37 0.202 0.367 0.195 0.805 0.386 1.259 0.546l0.069 0.021c-0.47-0.009-1.080 0.039-1.632 0.263-0.388 0.158-0.89 0.31-0.888 0.43 0 0.060 0.279 0.203 0.643 0.279 0.373 0.078 0.836 0.088 1.074 0.028 0.669-0.167 1.218-0.593 1.46-0.806 0.365 0.101 0.79 0.169 1.227 0.191l0.014 0.001c0.009 0 0.043 0 0.101 0h0.025c0.058 0 0.093 0 0.101 0v0c0.452-0.023 0.876-0.091 1.284-0.202l-0.042 0.010c0.24 0.212 0.79 0.639 1.46 0.806 0.238 0.059 0.7 0.048 1.074-0.028 0.364-0.076 0.643-0.219 0.643-0.279 0-0.119-0.501-0.272-0.888-0.43-0.55-0.224-1.159-0.272-1.632-0.263 0.523-0.18 0.961-0.372 1.382-0.593l-0.054 0.026c0.129-0.066 0.25-0.133 0.37-0.202 0.281 0.107 0.864 0.288 1.457 0.237 0.217-0.019 0.598-0.157 0.884-0.328 0.278-0.165 0.463-0.36 0.443-0.41-0.038-0.099-0.506-0.081-0.881-0.1-0.033-0.001-0.071-0.002-0.109-0.002-0.401 0-0.787 0.065-1.148 0.185l0.026-0.007c0.612-0.427 1.139-0.916 1.592-1.469l0.011-0.014c0.284-0.032 0.78-0.123 1.207-0.381 0.167-0.101 0.42-0.364 0.582-0.614 0.156-0.243 0.229-0.474 0.193-0.506z"></path>
<path fill="#010202" style="fill: var(--color1, #010202)" d="M13.359 32c-0.15-0-0.29-0.040-0.411-0.11l0.004 0.002-12.531-7.079c-0.253-0.145-0.421-0.414-0.421-0.722v-23.263c0.001-0.458 0.371-0.828 0.829-0.829h25.060c0 0 0.001 0 0.001 0 0.458 0 0.829 0.371 0.829 0.829v23.261c0 0 0 0 0 0.001 0 0.308-0.168 0.577-0.417 0.721l-0.004 0.002-12.531 7.078c-0.117 0.068-0.258 0.108-0.408 0.108h-0zM0.945 24.023l12.415 7.015 12.415-7.015v-23.078h-24.83z"></path>
<path fill="#e0e0e0" style="fill: var(--color5, #e0e0e0)" d="M10.757 10.243v-2.61h-0.92v-0.928c0.382-0.009 0.664-0.084 0.845-0.228s0.297-0.384 0.347-0.715h0.926v4.48h-1.2z"></path>
<path fill="#e0e0e0" style="fill: var(--color5, #e0e0e0)" d="M13.988 10.243c0.040-0.652 0.181-1.259 0.407-1.823l-0.014 0.039c0.254-0.608 0.578-1.133 0.971-1.597l-0.007 0.009h-1.999v-1.11h3.276v0.979c-0.381 0.424-0.684 0.927-0.882 1.48l-0.010 0.031q-0.308 0.864-0.357 1.989z"></path>
</symbol>
</defs>
</svg>
